<svg width="1471" height="58" viewBox="0 0 1471 58" fill="none" xmlns="http://www.w3.org/2000/svg">
<g clip-path="url(#clip0_15_86)">
<g opacity="0.8">
<path d="M41.6057 9.40004H43.572V7.40004H41.6057V9.40004ZM17.4445 9.40004V7.40004H15.4783V9.40004H17.4445ZM17.4445 16.648H15.4783V18.648H17.4445V16.648ZM33.1116 16.648H35.0778V14.648H33.1116V16.648ZM10.4604 26.152H12.4267V24.152H10.4604V26.152ZM1.96624 26.152V24.152H0V26.152H1.96624ZM41.6057 7.40004H17.4445V11.4H41.6057V7.40004ZM15.4783 9.40004V16.648H19.4108V9.40004H15.4783ZM17.4445 18.648H33.1116V14.648H17.4445V18.648ZM31.1453 16.648V26.152H35.0778V16.648H31.1453ZM31.1453 26.152C31.1453 28.3668 30.8234 30.2846 29.7026 31.6637C28.641 32.97 26.4875 34.232 21.786 34.232V38.232C27.1359 38.232 30.6452 36.782 32.7336 34.2123C34.7627 31.7154 35.0778 28.5932 35.0778 26.152H31.1453ZM21.786 34.232C17.0789 34.232 14.9268 32.9789 13.8675 31.6794C12.7498 30.3083 12.4267 28.3942 12.4267 26.152H8.49418C8.49418 28.6138 8.80809 31.7397 10.8403 34.2326C12.9309 36.7971 16.4417 38.232 21.786 38.232V34.232ZM10.4604 24.152H1.96624V28.152H10.4604V24.152ZM0 26.152C0 32.3614 1.66099 37.3451 5.49251 40.7199C9.26387 44.0418 14.7799 45.48 21.786 45.48V41.48C15.2014 41.48 10.8076 40.1102 8.06672 37.6961C5.38604 35.3349 3.93249 31.6546 3.93249 26.152H0ZM21.786 45.48C28.7738 45.48 34.2873 44.0275 38.062 40.7017C41.8958 37.324 43.572 32.3438 43.572 26.152H39.6395C39.6395 31.6242 38.1776 35.308 35.4874 37.6783C32.7381 40.1005 28.3417 41.48 21.786 41.48V45.48ZM43.572 26.152V9.40004H39.6395V26.152H43.572ZM68.9371 45.48C76.4072 45.48 82.1448 43.8911 86.0296 40.512C89.9755 37.0798 91.6669 32.1065 91.6669 26.152H87.7344C87.7344 31.3335 86.2879 35.0242 83.4738 37.472C80.5986 39.9729 75.9544 41.48 68.9371 41.48V45.48ZM91.6669 26.152C91.6669 20.2186 89.9736 15.2676 86.025 11.8541C82.1402 8.4956 76.4041 6.92004 68.9371 6.92004V10.92C75.9574 10.92 80.6033 12.4164 83.4783 14.9019C86.2897 17.3324 87.7344 20.9974 87.7344 26.152H91.6669ZM68.9371 6.92004C61.4515 6.92004 55.7132 8.48148 51.8318 11.8359C47.8853 15.2466 46.2073 20.2011 46.2073 26.152H50.1398C50.1398 20.9669 51.5765 17.3054 54.3781 14.8841C57.2449 12.4066 61.8883 10.92 68.9371 10.92V6.92004ZM46.2073 26.152C46.2073 32.1241 47.8835 37.1008 51.8273 40.5302C55.7085 43.9053 61.4485 45.48 68.9371 45.48V41.48C61.8914 41.48 57.2495 39.9827 54.3826 37.4898C51.5782 35.0512 50.1398 31.3639 50.1398 26.152H46.2073ZM68.9371 34.232C64.6778 34.232 62.1801 33.4515 60.748 32.2442C59.4076 31.1141 58.634 29.2872 58.634 26.152H54.7015C54.7015 29.9288 55.6504 33.1419 58.2386 35.3238C60.735 37.4285 64.372 38.232 68.9371 38.232V34.232ZM58.634 26.152C58.634 23.0376 59.3972 21.2409 60.7244 20.1308C62.1489 18.9393 64.6463 18.168 68.9371 18.168V14.168C64.3564 14.168 60.719 14.9567 58.2268 17.0412C55.6372 19.2071 54.7015 22.4024 54.7015 26.152H58.634ZM68.9371 18.168C73.2222 18.168 75.7209 18.9492 77.1472 20.1465C78.479 21.2646 79.2403 23.0656 79.2403 26.152H83.1727C83.1727 22.4224 82.2351 19.2314 79.6503 17.0615C77.1598 14.9708 73.5239 14.168 68.9371 14.168V18.168ZM79.2403 26.152C79.2403 29.2593 78.4687 31.0904 77.1236 32.2284C75.6897 33.4417 73.1907 34.232 68.9371 34.232V38.232C73.5082 38.232 77.1438 37.4143 79.6384 35.3036C82.222 33.1176 83.1727 29.9087 83.1727 26.152H79.2403ZM105.063 9.40004H107.029V7.40004H105.063V9.40004ZM96.5691 9.40004V7.40004H94.6028V9.40004H96.5691ZM96.5691 43H94.6028V45H96.5691V43ZM105.063 43V45H107.029V43H105.063ZM105.063 7.40004H96.5691V11.4H105.063V7.40004ZM94.6028 9.40004V43H98.5353V9.40004H94.6028ZM96.5691 45H105.063V41H96.5691V45ZM107.029 43V9.40004H103.097V43H107.029ZM146.674 9.40004V7.40004H144.708V9.40004H146.674ZM146.674 34.648L145.218 35.9931L148.64 39.8227V34.648H146.674ZM124.117 9.40004L125.572 8.05497L124.987 7.40004H124.117V9.40004ZM112.603 9.40004V7.40004H110.636V9.40004H112.603ZM112.603 43H110.636V45H112.603V43ZM121.097 43V45H123.063V43H121.097ZM121.097 17.8L122.552 16.4551L119.13 12.6246V17.8H121.097ZM143.607 43L142.151 44.3449L142.737 45H143.607V43ZM155.168 43V45H157.134V43H155.168ZM155.168 9.40004H157.134V7.40004H155.168V9.40004ZM144.708 9.40004V34.648H148.64V9.40004H144.708ZM148.129 33.3029L125.572 8.05497L122.661 10.7451L145.218 35.9931L148.129 33.3029ZM124.117 7.40004H112.603V11.4H124.117V7.40004ZM110.636 9.40004V43H114.569V9.40004H110.636ZM112.603 45H121.097V41H112.603V45ZM123.063 43V17.8H119.13V43H123.063ZM119.641 19.1449L142.151 44.3449L145.062 41.6551L122.552 16.4551L119.641 19.1449ZM143.607 45H155.168V41H143.607V45ZM157.134 43V9.40004H153.202V43H157.134ZM155.168 7.40004H146.674V11.4H155.168V7.40004ZM229.884 9.40004H231.851V7.40004H229.884V9.40004ZM221.39 9.40004V7.40004H219.424V9.40004H221.39ZM196.852 9.40004H198.818V7.40004H196.852V9.40004ZM188.357 9.40004V7.40004H186.391V9.40004H188.357ZM231.851 26.152V9.40004H227.918V26.152H231.851ZM229.884 7.40004H221.39V11.4H229.884V7.40004ZM219.424 9.40004V26.152H223.357V9.40004H219.424ZM219.424 26.152C219.424 28.363 219.102 30.2436 217.909 31.6096C216.746 32.9408 214.346 34.232 209.121 34.232V38.232C214.89 38.232 218.626 36.8112 220.849 34.2664C223.041 31.7564 223.357 28.597 223.357 26.152H219.424ZM209.121 34.232C203.89 34.232 201.491 32.9501 200.331 31.6253C199.14 30.2672 198.818 28.3905 198.818 26.152H194.885C194.885 28.6175 195.199 31.7808 197.395 34.2867C199.62 36.8259 203.356 38.232 209.121 38.232V34.232ZM198.818 26.152V9.40004H194.885V26.152H198.818ZM196.852 7.40004H188.357V11.4H196.852V7.40004ZM186.391 9.40004V26.152H190.324V9.40004H186.391ZM186.391 26.152C186.391 32.3638 188.055 37.3653 192.027 40.7427C195.922 44.0526 201.67 45.48 209.121 45.48V41.48C202.038 41.48 197.403 40.0994 194.549 37.6733C191.775 35.3147 190.324 31.6522 190.324 26.152H186.391ZM209.121 45.48C216.553 45.48 222.299 44.0386 226.196 40.7245C230.172 37.3441 231.851 32.3463 231.851 26.152H227.918C227.918 31.6217 226.458 35.2879 223.674 37.6555C220.811 40.0894 216.175 41.48 209.121 41.48V45.48ZM236.73 31.432V29.432H234.764V31.432H236.73ZM257.824 22.744L257.709 24.7406L257.718 24.7411L257.824 22.744ZM269.008 20.392H267.042V22.392H269.008V20.392ZM277.502 20.392V22.392H279.468V20.392H277.502ZM257.824 29.176L257.919 27.1783L257.914 27.1781L257.824 29.176ZM245.224 31.432H247.19V29.432H245.224V31.432ZM234.764 31.432C234.764 34.1416 235.33 36.493 236.533 38.4609C237.738 40.4326 239.49 41.8678 241.611 42.8972C245.755 44.9073 251.553 45.48 258.343 45.48V41.48C251.59 41.48 246.582 40.8767 243.304 39.2868C241.716 38.5162 240.603 37.5454 239.873 36.3491C239.14 35.149 238.696 33.5704 238.696 31.432H234.764ZM258.343 45.48C264.462 45.48 269.968 45.0386 273.989 43.284C276.044 42.3874 277.804 41.1095 279.04 39.2915C280.281 37.4641 280.884 35.2508 280.884 32.68H276.951C276.951 34.5972 276.511 35.9779 275.804 37.017C275.092 38.0655 274 38.9266 272.439 39.608C269.227 41.0094 264.447 41.48 258.343 41.48V45.48ZM280.884 32.68C280.884 30.2213 280.294 28.1255 279.014 26.4275C277.75 24.7508 275.962 23.6599 273.921 22.9138C269.945 21.4611 264.341 21.1013 257.931 20.7469L257.718 24.7411C264.331 25.1067 269.275 25.4669 272.59 26.6782C274.194 27.2641 275.237 27.9912 275.894 28.8615C276.534 29.7105 276.951 30.8907 276.951 32.68H280.884ZM257.94 20.7474C253.044 20.4545 250.403 20.1943 248.973 19.7596C248.291 19.5524 248.176 19.3854 248.198 19.4129C248.255 19.4841 248.181 19.4892 248.181 19.096H244.249C244.249 19.9988 244.424 21.0359 245.153 21.9441C245.847 22.8085 246.831 23.2836 247.847 23.5924C249.813 24.1897 252.977 24.4575 257.709 24.7405L257.94 20.7474ZM248.181 19.096C248.181 18.9148 248.2 18.8143 248.213 18.7666C248.219 18.7441 248.224 18.7336 248.225 18.731C248.227 18.7289 248.227 18.7287 248.227 18.7282C248.228 18.7275 248.232 18.7202 248.247 18.7067C248.263 18.6927 248.291 18.6698 248.337 18.64C248.431 18.5787 248.595 18.4941 248.866 18.4035C250.061 18.003 252.334 17.784 256.55 17.784V13.784C252.414 13.784 249.519 13.973 247.635 14.6045C246.646 14.9362 245.728 15.4544 245.085 16.3228C244.429 17.2096 244.249 18.2041 244.249 19.096H248.181ZM256.55 17.784C260.989 17.784 263.795 18.0259 265.46 18.5971C266.253 18.8694 266.606 19.1586 266.77 19.3661C266.91 19.5426 267.042 19.8196 267.042 20.392H270.974C270.974 19.1164 270.653 17.8934 269.835 16.8594C269.042 15.8564 267.934 15.2246 266.716 14.8069C264.359 13.9981 260.936 13.784 256.55 13.784V17.784ZM269.008 22.392H277.502V18.392H269.008V22.392ZM279.468 20.392C279.468 17.9966 278.92 15.8618 277.794 14.0341C276.671 12.2121 275.048 10.8148 273.08 9.76925C269.208 7.71223 263.818 6.92004 257.494 6.92004V10.92C263.627 10.92 268.242 11.7118 271.259 13.3148C272.736 14.0992 273.78 15.0509 274.462 16.1584C275.141 17.2602 275.536 18.6354 275.536 20.392H279.468ZM257.494 6.92004C251.264 6.92004 245.974 7.50062 242.183 9.18772C240.254 10.0461 238.621 11.2309 237.474 12.858C236.315 14.5029 235.755 16.4574 235.755 18.664H239.687C239.687 17.1746 240.054 16.0631 240.67 15.188C241.3 14.2951 242.291 13.5059 243.759 12.8523C246.764 11.5154 251.36 10.92 257.494 10.92V6.92004ZM235.755 18.664C235.755 20.8036 236.162 22.7435 237.154 24.4217C238.151 26.1085 239.638 27.3604 241.513 28.2913C245.146 30.095 250.551 30.8385 257.734 31.1739L257.914 27.1781C250.705 26.8415 246.058 26.097 243.238 24.6967C241.886 24.0256 241.047 23.2465 240.524 22.3608C239.995 21.4664 239.687 20.2924 239.687 18.664H235.755ZM257.729 31.1737C263.174 31.442 266.055 31.6932 267.593 32.1469C268.326 32.3626 268.439 32.5413 268.417 32.5126C268.372 32.4541 268.457 32.4817 268.457 32.968H272.39C272.39 32.0623 272.24 30.9859 271.506 30.0379C270.795 29.1197 269.768 28.6234 268.688 28.3051C266.605 27.6908 263.187 27.438 257.919 27.1783L257.729 31.1737ZM268.457 32.968C268.457 33.2549 268.396 33.32 268.37 33.352C268.304 33.4305 268.068 33.6483 267.365 33.8772C265.903 34.3531 263.285 34.616 258.815 34.616V38.616C263.264 38.616 266.451 38.3749 268.563 37.6868C269.648 37.3337 270.642 36.8045 271.358 35.9515C272.115 35.0519 272.39 34.0011 272.39 32.968H268.457ZM258.815 34.616C253.437 34.616 250.389 34.1937 248.728 33.5042C247.949 33.1809 247.62 32.8559 247.464 32.6206C247.311 32.3901 247.19 32.0474 247.19 31.432H243.258C243.258 32.5926 243.492 33.7859 244.206 34.8604C244.916 35.9301 245.968 36.6791 247.242 37.2078C249.687 38.2223 253.434 38.616 258.815 38.616V34.616ZM245.224 29.432H236.73V33.432H245.224V29.432Z" fill="url(#paint0_linear_15_86)"/>
<path d="M323.63 17.1092C323.9 16.3679 324.931 16.3679 325.2 17.1092L328.013 24.8384C328.097 25.0715 328.278 25.2552 328.507 25.3415L336.106 28.2016C336.834 28.4759 336.834 29.5243 336.106 29.7986L328.507 32.6587C328.278 32.7449 328.097 32.9287 328.013 33.1618L325.2 40.891C324.931 41.6323 323.9 41.6323 323.63 40.891L320.818 33.1618C320.734 32.9287 320.553 32.7449 320.324 32.6587L312.725 29.7986C311.997 29.5243 311.997 28.4759 312.725 28.2016L320.324 25.3415C320.553 25.2552 320.734 25.0715 320.818 24.8384L323.63 17.1092Z" fill="url(#paint1_linear_15_86)"/>
<path d="M409.39 9.40004H411.356V7.40004H409.39V9.40004ZM385.229 9.40004V7.40004H383.262V9.40004H385.229ZM385.229 16.648H383.262V18.648H385.229V16.648ZM400.896 16.648H402.862V14.648H400.896V16.648ZM378.245 26.152H380.211V24.152H378.245V26.152ZM369.75 26.152V24.152H367.784V26.152H369.75ZM409.39 7.40004H385.229V11.4H409.39V7.40004ZM383.262 9.40004V16.648H387.195V9.40004H383.262ZM385.229 18.648H400.896V14.648H385.229V18.648ZM398.93 16.648V26.152H402.862V16.648H398.93ZM398.93 26.152C398.93 28.3668 398.607 30.2846 397.486 31.6637C396.425 32.97 394.271 34.232 389.57 34.232V38.232C394.919 38.232 398.429 36.782 400.517 34.2123C402.546 31.7154 402.862 28.5932 402.862 26.152H398.93ZM389.57 34.232C384.863 34.232 382.711 32.9789 381.651 31.6794C380.533 30.3083 380.211 28.3942 380.211 26.152H376.278C376.278 28.6138 376.592 31.7397 378.624 34.2326C380.715 36.7971 384.226 38.232 389.57 38.232V34.232ZM378.245 24.152H369.75V28.152H378.245V24.152ZM367.784 26.152C367.784 32.3614 369.445 37.3451 373.276 40.7199C377.048 44.0418 382.563 45.48 389.57 45.48V41.48C382.985 41.48 378.592 40.1102 375.851 37.6961C373.17 35.3349 371.717 31.6546 371.717 26.152H367.784ZM389.57 45.48C396.557 45.48 402.072 44.0275 405.846 40.7017C409.68 37.324 411.356 32.3438 411.356 26.152H407.424C407.424 31.6242 405.962 35.308 403.271 37.6783C400.522 40.1005 396.126 41.48 389.57 41.48V45.48ZM411.356 26.152V9.40004H407.424V26.152H411.356ZM436.721 45.48C444.191 45.48 449.929 43.8911 453.813 40.512C457.76 37.0798 459.451 32.1065 459.451 26.152H455.518C455.518 31.3335 454.072 35.0242 451.257 37.472C448.383 39.9729 443.738 41.48 436.721 41.48V45.48ZM459.451 26.152C459.451 20.2186 457.758 15.2676 453.809 11.8541C449.924 8.4956 444.188 6.92004 436.721 6.92004V10.92C443.741 10.92 448.387 12.4164 451.262 14.9019C454.074 17.3324 455.518 20.9974 455.518 26.152H459.451ZM436.721 6.92004C429.235 6.92004 423.497 8.48148 419.615 11.8359C415.669 15.2466 413.991 20.2011 413.991 26.152H417.923C417.923 20.9669 419.361 17.3054 422.162 14.8841C425.028 12.4066 429.672 10.92 436.721 10.92V6.92004ZM413.991 26.152C413.991 32.1241 415.667 37.1008 419.611 40.5302C423.493 43.9053 429.232 45.48 436.721 45.48V41.48C429.676 41.48 425.033 39.9827 422.167 37.4898C419.362 35.0512 417.923 31.3639 417.923 26.152H413.991ZM436.721 34.232C432.462 34.232 429.964 33.4515 428.532 32.2442C427.191 31.1141 426.418 29.2872 426.418 26.152H422.485C422.485 29.9288 423.434 33.1419 426.022 35.3238C428.519 37.4285 432.156 38.232 436.721 38.232V34.232ZM426.418 26.152C426.418 23.0376 427.181 21.2409 428.509 20.1308C429.933 18.9393 432.43 18.168 436.721 18.168V14.168C432.14 14.168 428.503 14.9567 426.011 17.0412C423.421 19.2071 422.485 22.4024 422.485 26.152H426.418ZM436.721 18.168C441.006 18.168 443.504 18.9492 444.931 20.1465C446.263 21.2646 447.024 23.0656 447.024 26.152H450.956C450.956 22.4224 450.019 19.2314 447.434 17.0615C444.944 14.9708 441.308 14.168 436.721 14.168V18.168ZM447.024 26.152C447.024 29.2593 446.252 31.0904 444.907 32.2284C443.474 33.4417 440.975 34.232 436.721 34.232V38.232C441.292 38.232 444.928 37.4143 447.422 35.3036C450.006 33.1176 450.956 29.9087 450.956 26.152H447.024ZM472.848 9.40004H474.814V7.40004H472.848V9.40004ZM464.353 9.40004V7.40004H462.387V9.40004H464.353ZM464.353 43H462.387V45H464.353V43ZM472.848 43V45H474.814V43H472.848ZM472.848 7.40004H464.353V11.4H472.848V7.40004ZM462.387 9.40004V43H466.32V9.40004H462.387ZM464.353 45H472.848V41H464.353V45ZM474.814 43V9.40004H470.881V43H474.814ZM514.457 9.40004V7.40004H512.491V9.40004H514.457ZM514.457 34.648L513.002 35.9931L516.423 39.8227V34.648H514.457ZM491.9 9.40004L493.355 8.05497L492.771 7.40004H491.9V9.40004ZM480.386 9.40004V7.40004H478.42V9.40004H480.386ZM480.386 43H478.42V45H480.386V43ZM488.88 43V45H490.847V43H488.88ZM488.88 17.8L490.336 16.4551L486.914 12.6246V17.8H488.88ZM511.39 43L509.935 44.3449L510.52 45H511.39V43ZM522.951 43V45H524.918V43H522.951ZM522.951 9.40004H524.918V7.40004H522.951V9.40004ZM512.491 9.40004V34.648H516.423V9.40004H512.491ZM515.912 33.3029L493.355 8.05497L490.445 10.7451L513.002 35.9931L515.912 33.3029ZM491.9 7.40004H480.386V11.4H491.9V7.40004ZM478.42 9.40004V43H482.352V9.40004H478.42ZM480.386 45H488.88V41H480.386V45ZM490.847 43V17.8H486.914V43H490.847ZM487.425 19.1449L509.935 44.3449L512.846 41.6551L490.336 16.4551L487.425 19.1449ZM511.39 45H522.951V41H511.39V45ZM524.918 43V9.40004H520.985V43H524.918ZM522.951 7.40004H514.457V11.4H522.951V7.40004ZM597.668 9.40004H599.634V7.40004H597.668V9.40004ZM589.174 9.40004V7.40004H587.207V9.40004H589.174ZM564.635 9.40004H566.601V7.40004H564.635V9.40004ZM556.141 9.40004V7.40004H554.174V9.40004H556.141ZM599.634 26.152V9.40004H595.701V26.152H599.634ZM597.668 7.40004H589.174V11.4H597.668V7.40004ZM587.207 9.40004V26.152H591.14V9.40004H587.207ZM587.207 26.152C587.207 28.363 586.886 30.2436 585.692 31.6096C584.529 32.9408 582.13 34.232 576.904 34.232V38.232C582.674 38.232 586.409 36.8112 588.632 34.2664C590.825 31.7564 591.14 28.597 591.14 26.152H587.207ZM576.904 34.232C571.673 34.232 569.275 32.9501 568.114 31.6253C566.925 30.2672 566.601 28.3905 566.601 26.152H562.669C562.669 28.6175 562.983 31.7808 565.178 34.2867C567.403 36.8259 571.14 38.232 576.904 38.232V34.232ZM566.601 26.152V9.40004H562.669V26.152H566.601ZM564.635 7.40004H556.141V11.4H564.635V7.40004ZM554.174 9.40004V26.152H558.107V9.40004H554.174ZM554.174 26.152C554.174 32.3638 555.838 37.3653 559.812 40.7427C563.706 44.0526 569.453 45.48 576.904 45.48V41.48C569.821 41.48 565.187 40.0994 562.333 37.6733C559.558 35.3147 558.107 31.6522 558.107 26.152H554.174ZM576.904 45.48C584.338 45.48 590.083 44.0386 593.98 40.7245C597.956 37.3441 599.634 32.3463 599.634 26.152H595.701C595.701 31.6217 594.243 35.2879 591.458 37.6555C588.595 40.0894 583.959 41.48 576.904 41.48V45.48ZM604.514 31.432V29.432H602.548V31.432H604.514ZM625.608 22.744L625.493 24.7406L625.501 24.7411L625.608 22.744ZM636.792 20.392H634.826V22.392H636.792V20.392ZM645.286 20.392V22.392H647.252V20.392H645.286ZM625.608 29.176L625.703 27.1783L625.699 27.1781L625.608 29.176ZM613.008 31.432H614.975V29.432H613.008V31.432ZM602.548 31.432C602.548 34.1416 603.114 36.493 604.317 38.4609C605.522 40.4326 607.274 41.8678 609.395 42.8972C613.539 44.9073 619.337 45.48 626.127 45.48V41.48C619.374 41.48 614.366 40.8767 611.088 39.2868C609.5 38.5162 608.388 37.5454 607.656 36.3491C606.923 35.149 606.48 33.5704 606.48 31.432H602.548ZM626.127 45.48C632.246 45.48 637.753 45.0386 641.773 43.284C643.827 42.3874 645.588 41.1095 646.823 39.2915C648.066 37.4641 648.668 35.2508 648.668 32.68H644.736C644.736 34.5972 644.294 35.9779 643.588 37.017C642.876 38.0655 641.784 38.9266 640.222 39.608C637.011 41.0094 632.23 41.48 626.127 41.48V45.48ZM648.668 32.68C648.668 30.2213 648.078 28.1255 646.798 26.4275C645.534 24.7508 643.746 23.6599 641.704 22.9138C637.728 21.4611 632.125 21.1013 625.715 20.7469L625.501 24.7411C632.115 25.1067 637.059 25.4669 640.375 26.6782C641.978 27.2641 643.021 27.9912 643.677 28.8615C644.317 29.7105 644.736 30.8907 644.736 32.68H648.668ZM625.723 20.7474C620.828 20.4545 618.187 20.1943 616.756 19.7596C616.074 19.5524 615.96 19.3854 615.982 19.4129C616.039 19.4841 615.966 19.4892 615.966 19.096H612.033C612.033 19.9988 612.207 21.0359 612.937 21.9441C613.632 22.8085 614.615 23.2836 615.631 23.5924C617.598 24.1897 620.761 24.4575 625.493 24.7405L625.723 20.7474ZM615.966 19.096C615.966 18.9148 615.984 18.8143 615.997 18.7666C616.003 18.7441 616.008 18.7336 616.009 18.731C616.01 18.7289 616.01 18.7287 616.011 18.7282C616.011 18.7275 616.017 18.7202 616.031 18.7067C616.046 18.6927 616.074 18.6698 616.12 18.64C616.215 18.5787 616.379 18.4941 616.65 18.4035C617.845 18.003 620.118 17.784 624.334 17.784V13.784C620.198 13.784 617.304 13.973 615.419 14.6045C614.429 14.9362 613.511 15.4544 612.869 16.3228C612.212 17.2096 612.033 18.2041 612.033 19.096H615.966ZM624.334 17.784C628.773 17.784 631.579 18.0259 633.244 18.5971C634.037 18.8694 634.39 19.1586 634.554 19.3661C634.694 19.5426 634.826 19.8196 634.826 20.392H638.758C638.758 19.1164 638.436 17.8934 637.619 16.8594C636.825 15.8564 635.718 15.2246 634.5 14.8069C632.143 13.9981 628.72 13.784 624.334 13.784V17.784ZM636.792 22.392H645.286V18.392H636.792V22.392ZM647.252 20.392C647.252 17.9966 646.704 15.8618 645.578 14.0341C644.455 12.2121 642.832 10.8148 640.864 9.76925C636.992 7.71223 631.602 6.92004 625.278 6.92004V10.92C631.411 10.92 636.026 11.7118 639.043 13.3148C640.52 14.0992 641.563 15.0509 642.245 16.1584C642.925 17.2602 643.32 18.6354 643.32 20.392H647.252ZM625.278 6.92004C619.048 6.92004 613.758 7.50062 609.967 9.18772C608.038 10.0461 606.404 11.2309 605.257 12.858C604.099 14.5029 603.539 16.4574 603.539 18.664H607.471C607.471 17.1746 607.838 16.0631 608.454 15.188C609.084 14.2951 610.075 13.5059 611.543 12.8523C614.547 11.5154 619.144 10.92 625.278 10.92V6.92004ZM603.539 18.664C603.539 20.8036 603.945 22.7435 604.937 24.4217C605.934 26.1085 607.421 27.3604 609.297 28.2913C612.93 30.095 618.334 30.8385 625.518 31.1739L625.699 27.1781C618.489 26.8415 613.842 26.097 611.021 24.6967C609.671 24.0256 608.831 23.2465 608.307 22.3608C607.779 21.4664 607.471 20.2924 607.471 18.664H603.539ZM625.513 31.1737C630.957 31.442 633.839 31.6932 635.377 32.1469C636.109 32.3626 636.223 32.5413 636.201 32.5126C636.155 32.4541 636.242 32.4817 636.242 32.968H640.174C640.174 32.0623 640.025 30.9859 639.29 30.0379C638.579 29.1197 637.552 28.6234 636.473 28.3051C634.389 27.6908 630.971 27.438 625.703 27.1783L625.513 31.1737ZM636.242 32.968C636.242 33.2549 636.181 33.32 636.154 33.352C636.088 33.4305 635.851 33.6483 635.148 33.8772C633.687 34.3531 631.069 34.616 626.599 34.616V38.616C631.048 38.616 634.234 38.3749 636.348 37.6868C637.432 37.3337 638.425 36.8045 639.143 35.9515C639.899 35.0519 640.174 34.0011 640.174 32.968H636.242ZM626.599 34.616C621.221 34.616 618.173 34.1937 616.512 33.5042C615.733 33.1809 615.404 32.8559 615.248 32.6206C615.095 32.3901 614.975 32.0474 614.975 31.432H611.042C611.042 32.5926 611.276 33.7859 611.99 34.8604C612.701 35.9301 613.753 36.6791 615.026 37.2078C617.471 38.2223 621.217 38.616 626.599 38.616V34.616ZM613.008 29.432H604.514V33.432H613.008V29.432Z" fill="url(#paint2_linear_15_86)"/>
<path d="M691.414 17.1092C691.684 16.3679 692.715 16.3679 692.984 17.1092L695.796 24.8384C695.881 25.0715 696.062 25.2552 696.291 25.3415L703.889 28.2016C704.619 28.4759 704.619 29.5243 703.889 29.7986L696.291 32.6587C696.062 32.7449 695.881 32.9287 695.796 33.1618L692.984 40.891C692.715 41.6323 691.684 41.6323 691.414 40.891L688.603 33.1618C688.518 32.9287 688.337 32.7449 688.108 32.6587L680.51 29.7986C679.78 29.5243 679.78 28.4759 680.51 28.2016L688.108 25.3415C688.337 25.2552 688.518 25.0715 688.603 24.8384L691.414 17.1092Z" fill="url(#paint3_linear_15_86)"/>
<path d="M777.173 9.40004H779.139V7.40004H777.173V9.40004ZM753.012 9.40004V7.40004H751.046V9.40004H753.012ZM753.012 16.648H751.046V18.648H753.012V16.648ZM768.679 16.648H770.645V14.648H768.679V16.648ZM746.028 26.152H747.994V24.152H746.028V26.152ZM737.534 26.152V24.152H735.567V26.152H737.534ZM777.173 7.40004H753.012V11.4H777.173V7.40004ZM751.046 9.40004V16.648H754.978V9.40004H751.046ZM753.012 18.648H768.679V14.648H753.012V18.648ZM766.713 16.648V26.152H770.645V16.648H766.713ZM766.713 26.152C766.713 28.3668 766.391 30.2846 765.27 31.6637C764.209 32.97 762.056 34.232 757.353 34.232V38.232C762.704 38.232 766.213 36.782 768.301 34.2123C770.331 31.7154 770.645 28.5932 770.645 26.152H766.713ZM757.353 34.232C752.646 34.232 750.494 32.9789 749.435 31.6794C748.318 30.3083 747.994 28.3942 747.994 26.152H744.062C744.062 28.6138 744.376 31.7397 746.408 34.2326C748.498 36.7971 752.009 38.232 757.353 38.232V34.232ZM746.028 24.152H737.534V28.152H746.028V24.152ZM735.567 26.152C735.567 32.3614 737.229 37.3451 741.06 40.7199C744.831 44.0418 750.348 45.48 757.353 45.48V41.48C750.769 41.48 746.375 40.1102 743.635 37.6961C740.954 35.3349 739.5 31.6546 739.5 26.152H735.567ZM757.353 45.48C764.341 45.48 769.855 44.0275 773.63 40.7017C777.463 37.324 779.139 32.3438 779.139 26.152H775.207C775.207 31.6242 773.745 35.308 771.055 37.6783C768.305 40.1005 763.91 41.48 757.353 41.48V45.48ZM779.139 26.152V9.40004H775.207V26.152H779.139ZM804.505 45.48C811.975 45.48 817.712 43.8911 821.597 40.512C825.543 37.0798 827.235 32.1065 827.235 26.152H823.302C823.302 31.3335 821.856 35.0242 819.041 37.472C816.167 39.9729 811.522 41.48 804.505 41.48V45.48ZM827.235 26.152C827.235 20.2186 825.542 15.2676 821.593 11.8541C817.708 8.4956 811.972 6.92004 804.505 6.92004V10.92C811.525 10.92 816.171 12.4164 819.046 14.9019C821.857 17.3324 823.302 20.9974 823.302 26.152H827.235ZM804.505 6.92004C797.019 6.92004 791.281 8.48148 787.4 11.8359C783.453 15.2466 781.775 20.2011 781.775 26.152H785.708C785.708 20.9669 787.144 17.3054 789.946 14.8841C792.813 12.4066 797.456 10.92 804.505 10.92V6.92004ZM781.775 26.152C781.775 32.1241 783.451 37.1008 787.395 40.5302C791.276 43.9053 797.016 45.48 804.505 45.48V41.48C797.459 41.48 792.818 39.9827 789.951 37.4898C787.146 35.0512 785.708 31.3639 785.708 26.152H781.775ZM804.505 34.232C800.245 34.232 797.748 33.4515 796.316 32.2442C794.976 31.1141 794.202 29.2872 794.202 26.152H790.269C790.269 29.9288 791.218 33.1419 793.807 35.3238C796.303 37.4285 799.939 38.232 804.505 38.232V34.232ZM794.202 26.152C794.202 23.0376 794.965 21.2409 796.292 20.1308C797.716 18.9393 800.214 18.168 804.505 18.168V14.168C799.924 14.168 796.287 14.9567 793.795 17.0412C791.205 19.2071 790.269 22.4024 790.269 26.152H794.202ZM804.505 18.168C808.79 18.168 811.288 18.9492 812.715 20.1465C814.047 21.2646 814.808 23.0656 814.808 26.152H818.741C818.741 22.4224 817.803 19.2314 815.218 17.0615C812.728 14.9708 809.091 14.168 804.505 14.168V18.168ZM814.808 26.152C814.808 29.2593 814.036 31.0904 812.691 32.2284C811.257 33.4417 808.758 34.232 804.505 34.232V38.232C809.075 38.232 812.711 37.4143 815.206 35.3036C817.79 33.1176 818.741 29.9087 818.741 26.152H814.808ZM840.631 9.40004H842.597V7.40004H840.631V9.40004ZM832.137 9.40004V7.40004H830.17V9.40004H832.137ZM832.137 43H830.17V45H832.137V43ZM840.631 43V45H842.597V43H840.631ZM840.631 7.40004H832.137V11.4H840.631V7.40004ZM830.17 9.40004V43H834.103V9.40004H830.17ZM832.137 45H840.631V41H832.137V45ZM842.597 43V9.40004H838.664V43H842.597ZM882.241 9.40004V7.40004H880.275V9.40004H882.241ZM882.241 34.648L880.786 35.9931L884.208 39.8227V34.648H882.241ZM859.685 9.40004L861.14 8.05497L860.555 7.40004H859.685V9.40004ZM848.17 9.40004V7.40004H846.204V9.40004H848.17ZM848.17 43H846.204V45H848.17V43ZM856.664 43V45H858.631V43H856.664ZM856.664 17.8L858.119 16.4551L854.698 12.6246V17.8H856.664ZM879.174 43L877.719 44.3449L878.304 45H879.174V43ZM890.736 43V45H892.702V43H890.736ZM890.736 9.40004H892.702V7.40004H890.736V9.40004ZM880.275 9.40004V34.648H884.208V9.40004H880.275ZM883.696 33.3029L861.14 8.05497L858.23 10.7451L880.786 35.9931L883.696 33.3029ZM859.685 7.40004H848.17V11.4H859.685V7.40004ZM846.204 9.40004V43H850.137V9.40004H846.204ZM848.17 45H856.664V41H848.17V45ZM858.631 43V17.8H854.698V43H858.631ZM855.209 19.1449L877.719 44.3449L880.629 41.6551L858.119 16.4551L855.209 19.1449ZM879.174 45H890.736V41H879.174V45ZM892.702 43V9.40004H888.769V43H892.702ZM890.736 7.40004H882.241V11.4H890.736V7.40004ZM965.452 9.40004H967.418V7.40004H965.452V9.40004ZM956.958 9.40004V7.40004H954.991V9.40004H956.958ZM932.419 9.40004H934.385V7.40004H932.419V9.40004ZM923.925 9.40004V7.40004H921.959V9.40004H923.925ZM967.418 26.152V9.40004H963.486V26.152H967.418ZM965.452 7.40004H956.958V11.4H965.452V7.40004ZM954.991 9.40004V26.152H958.924V9.40004H954.991ZM954.991 26.152C954.991 28.363 954.67 30.2436 953.476 31.6096C952.313 32.9408 949.915 34.232 944.688 34.232V38.232C950.457 38.232 954.193 36.8112 956.416 34.2664C958.608 31.7564 958.924 28.597 958.924 26.152H954.991ZM944.688 34.232C939.457 34.232 937.059 32.9501 935.898 31.6253C934.709 30.2672 934.385 28.3905 934.385 26.152H930.453C930.453 28.6175 930.766 31.7808 932.963 34.2867C935.187 36.8259 938.924 38.232 944.688 38.232V34.232ZM934.385 26.152V9.40004H930.453V26.152H934.385ZM932.419 7.40004H923.925V11.4H932.419V7.40004ZM921.959 9.40004V26.152H925.891V9.40004H921.959ZM921.959 26.152C921.959 32.3638 923.622 37.3653 927.595 40.7427C931.489 44.0526 937.237 45.48 944.688 45.48V41.48C937.605 41.48 932.972 40.0994 930.117 37.6733C927.342 35.3147 925.891 31.6522 925.891 26.152H921.959ZM944.688 45.48C952.121 45.48 957.866 44.0386 961.764 40.7245C965.739 37.3441 967.418 32.3463 967.418 26.152H963.486C963.486 31.6217 962.026 35.2879 959.242 37.6555C956.38 40.0894 951.743 41.48 944.688 41.48V45.48ZM972.298 31.432V29.432H970.332V31.432H972.298ZM993.392 22.744L993.276 24.7406L993.285 24.7411L993.392 22.744ZM1004.58 20.392H1002.61V22.392H1004.58V20.392ZM1013.07 20.392V22.392H1015.04V20.392H1013.07ZM993.392 29.176L993.487 27.1783L993.482 27.1781L993.392 29.176ZM980.793 31.432H982.759V29.432H980.793V31.432ZM970.332 31.432C970.332 34.1416 970.897 36.493 972.101 38.4609C973.306 40.4326 975.057 41.8678 977.18 42.8972C981.322 44.9073 987.121 45.48 993.911 45.48V41.48C987.157 41.48 982.149 40.8767 978.873 39.2868C977.284 38.5162 976.172 37.5454 975.44 36.3491C974.707 35.149 974.265 33.5704 974.265 31.432H970.332ZM993.911 45.48C1000.03 45.48 1005.53 45.0386 1009.55 43.284C1011.61 42.3874 1013.37 41.1095 1014.61 39.2915C1015.85 37.4641 1016.46 35.2508 1016.46 32.68H1012.52C1012.52 34.5972 1012.08 35.9779 1011.37 37.017C1010.66 38.0655 1009.56 38.9266 1008.01 39.608C1004.8 41.0094 1000.01 41.48 993.911 41.48V45.48ZM1016.46 32.68C1016.46 30.2213 1015.87 28.1255 1014.58 26.4275C1013.32 24.7508 1011.53 23.6599 1009.49 22.9138C1005.51 21.4611 999.909 21.1013 993.498 20.7469L993.285 24.7411C999.9 25.1067 1004.85 25.4669 1008.16 26.6782C1009.76 27.2641 1010.8 27.9912 1011.46 28.8615C1012.1 29.7105 1012.52 30.8907 1012.52 32.68H1016.46ZM993.507 20.7474C988.612 20.4545 985.972 20.1943 984.54 19.7596C983.858 19.5524 983.744 19.3854 983.766 19.4129C983.824 19.4841 983.75 19.4892 983.75 19.096H979.817C979.817 19.9988 979.991 21.0359 980.721 21.9441C981.415 22.8085 982.398 23.2836 983.415 23.5924C985.382 24.1897 988.545 24.4575 993.276 24.7405L993.507 20.7474ZM983.75 19.096C983.75 18.9148 983.767 18.8143 983.781 18.7666C983.787 18.7441 983.792 18.7336 983.793 18.731C983.794 18.7289 983.794 18.7287 983.794 18.7282C983.795 18.7275 983.8 18.7202 983.815 18.7067C983.83 18.6927 983.858 18.6698 983.904 18.64C984 18.5787 984.164 18.4941 984.434 18.4035C985.629 18.003 987.901 17.784 992.118 17.784V13.784C987.981 13.784 985.087 13.973 983.203 14.6045C982.213 14.9362 981.295 15.4544 980.652 16.3228C979.996 17.2096 979.817 18.2041 979.817 19.096H983.75ZM992.118 17.784C996.557 17.784 999.363 18.0259 1001.03 18.5971C1001.82 18.8694 1002.17 19.1586 1002.34 19.3661C1002.48 19.5426 1002.61 19.8196 1002.61 20.392H1006.55C1006.55 19.1164 1006.22 17.8934 1005.41 16.8594C1004.61 15.8564 1003.5 15.2246 1002.28 14.8069C999.927 13.9981 996.504 13.784 992.118 13.784V17.784ZM1004.58 22.392H1013.07V18.392H1004.58V22.392ZM1015.04 20.392C1015.04 17.9966 1014.49 15.8618 1013.36 14.0341C1012.24 12.2121 1010.62 10.8148 1008.65 9.76925C1004.78 7.71223 999.386 6.92004 993.062 6.92004V10.92C999.196 10.92 1003.81 11.7118 1006.83 13.3148C1008.31 14.0992 1009.35 15.0509 1010.03 16.1584C1010.71 17.2602 1011.11 18.6354 1011.11 20.392H1015.04ZM993.062 6.92004C986.832 6.92004 981.542 7.50062 977.751 9.18772C975.822 10.0461 974.188 11.2309 973.042 12.858C971.883 14.5029 971.323 16.4574 971.323 18.664H975.256C975.256 17.1746 975.621 16.0631 976.238 15.188C976.867 14.2951 977.858 13.5059 979.327 12.8523C982.331 11.5154 986.928 10.92 993.062 10.92V6.92004ZM971.323 18.664C971.323 20.8036 971.729 22.7435 972.721 24.4217C973.718 26.1085 975.205 27.3604 977.08 28.2913C980.714 30.095 986.118 30.8385 993.302 31.1739L993.482 27.1781C986.272 26.8415 981.626 26.097 978.806 24.6967C977.454 24.0256 976.614 23.2465 976.091 22.3608C975.562 21.4664 975.256 20.2924 975.256 18.664H971.323ZM993.297 31.1737C998.741 31.442 1001.62 31.6932 1003.16 32.1469C1003.89 32.3626 1004.01 32.5413 1003.98 32.5126C1003.94 32.4541 1004.03 32.4817 1004.03 32.968H1007.96C1007.96 32.0623 1007.8 30.9859 1007.08 30.0379C1006.36 29.1197 1005.34 28.6234 1004.26 28.3051C1002.17 27.6908 998.755 27.438 993.487 27.1783L993.297 31.1737ZM1004.03 32.968C1004.03 33.2549 1003.96 33.32 1003.94 33.352C1003.87 33.4305 1003.64 33.6483 1002.93 33.8772C1001.47 34.3531 998.853 34.616 994.383 34.616V38.616C998.832 38.616 1002.02 38.3749 1004.13 37.6868C1005.22 37.3337 1006.21 36.8045 1006.93 35.9515C1007.69 35.0519 1007.96 34.0011 1007.96 32.968H1004.03ZM994.383 34.616C989.005 34.616 985.957 34.1937 984.295 33.5042C983.517 33.1809 983.188 32.8559 983.032 32.6206C982.879 32.3901 982.759 32.0474 982.759 31.432H978.826C978.826 32.5926 979.059 33.7859 979.774 34.8604C980.485 35.9301 981.537 36.6791 982.81 37.2078C985.254 38.2223 989.002 38.616 994.383 38.616V34.616ZM980.793 29.432H972.298V33.432H980.793V29.432Z" fill="url(#paint4_linear_15_86)"/>
<path d="M1059.2 17.1092C1059.47 16.3679 1060.5 16.3679 1060.77 17.1092L1063.58 24.8384C1063.67 25.0715 1063.84 25.2552 1064.08 25.3415L1071.68 28.2016C1072.41 28.4759 1072.41 29.5243 1071.68 29.7986L1064.08 32.6587C1063.84 32.7449 1063.67 32.9287 1063.58 33.1618L1060.77 40.891C1060.5 41.6323 1059.47 41.6323 1059.2 40.891L1056.39 33.1618C1056.3 32.9287 1056.13 32.7449 1055.89 32.6587L1048.29 29.7986C1047.56 29.5243 1047.56 28.4759 1048.29 28.2016L1055.89 25.3415C1056.13 25.2552 1056.3 25.0715 1056.39 24.8384L1059.2 17.1092Z" fill="url(#paint5_linear_15_86)"/>
<path d="M1144.96 9.40004H1146.93V7.40004H1144.96V9.40004ZM1120.8 9.40004V7.40004H1118.83V9.40004H1120.8ZM1120.8 16.648H1118.83V18.648H1120.8V16.648ZM1136.47 16.648H1138.43V14.648H1136.47V16.648ZM1113.81 26.152H1115.78V24.152H1113.81V26.152ZM1105.32 26.152V24.152H1103.35V26.152H1105.32ZM1144.96 7.40004H1120.8V11.4H1144.96V7.40004ZM1118.83 9.40004V16.648H1122.76V9.40004H1118.83ZM1120.8 18.648H1136.47V14.648H1120.8V18.648ZM1134.5 16.648V26.152H1138.43V16.648H1134.5ZM1134.5 26.152C1134.5 28.3668 1134.18 30.2846 1133.05 31.6637C1131.99 32.97 1129.84 34.232 1125.14 34.232V38.232C1130.49 38.232 1134 36.782 1136.08 34.2123C1138.12 31.7154 1138.43 28.5932 1138.43 26.152H1134.5ZM1125.14 34.232C1120.43 34.232 1118.28 32.9789 1117.22 31.6794C1116.11 30.3083 1115.78 28.3942 1115.78 26.152H1111.85C1111.85 28.6138 1112.16 31.7397 1114.19 34.2326C1116.28 36.7971 1119.79 38.232 1125.14 38.232V34.232ZM1113.81 24.152H1105.32V28.152H1113.81V24.152ZM1103.35 26.152C1103.35 32.3614 1105.02 37.3451 1108.84 40.7199C1112.62 44.0418 1118.13 45.48 1125.14 45.48V41.48C1118.55 41.48 1114.16 40.1102 1111.42 37.6961C1108.74 35.3349 1107.29 31.6546 1107.29 26.152H1103.35ZM1125.14 45.48C1132.12 45.48 1137.64 44.0275 1141.41 40.7017C1145.25 37.324 1146.93 32.3438 1146.93 26.152H1142.99C1142.99 31.6242 1141.53 35.308 1138.84 37.6783C1136.09 40.1005 1131.7 41.48 1125.14 41.48V45.48ZM1146.93 26.152V9.40004H1142.99V26.152H1146.93ZM1172.29 45.48C1179.76 45.48 1185.49 43.8911 1189.38 40.512C1193.33 37.0798 1195.02 32.1065 1195.02 26.152H1191.09C1191.09 31.3335 1189.64 35.0242 1186.82 37.472C1183.95 39.9729 1179.31 41.48 1172.29 41.48V45.48ZM1195.02 26.152C1195.02 20.2186 1193.33 15.2676 1189.38 11.8541C1185.49 8.4956 1179.75 6.92004 1172.29 6.92004V10.92C1179.31 10.92 1183.95 12.4164 1186.83 14.9019C1189.64 17.3324 1191.09 20.9974 1191.09 26.152H1195.02ZM1172.29 6.92004C1164.8 6.92004 1159.07 8.48148 1155.18 11.8359C1151.23 15.2466 1149.56 20.2011 1149.56 26.152H1153.49C1153.49 20.9669 1154.93 17.3054 1157.73 14.8841C1160.59 12.4066 1165.24 10.92 1172.29 10.92V6.92004ZM1149.56 26.152C1149.56 32.1241 1151.23 37.1008 1155.17 40.5302C1159.06 43.9053 1164.8 45.48 1172.29 45.48V41.48C1165.24 41.48 1160.6 39.9827 1157.73 37.4898C1154.93 35.0512 1153.49 31.3639 1153.49 26.152H1149.56ZM1172.29 34.232C1168.03 34.232 1165.53 33.4515 1164.1 32.2442C1162.75 31.1141 1161.99 29.2872 1161.99 26.152H1158.06C1158.06 29.9288 1159 33.1419 1161.59 35.3238C1164.08 37.4285 1167.72 38.232 1172.29 38.232V34.232ZM1161.99 26.152C1161.99 23.0376 1162.74 21.2409 1164.07 20.1308C1165.5 18.9393 1167.99 18.168 1172.29 18.168V14.168C1167.71 14.168 1164.07 14.9567 1161.57 17.0412C1158.99 19.2071 1158.06 22.4024 1158.06 26.152H1161.99ZM1172.29 18.168C1176.58 18.168 1179.07 18.9492 1180.5 20.1465C1181.83 21.2646 1182.59 23.0656 1182.59 26.152H1186.53C1186.53 22.4224 1185.58 19.2314 1183 17.0615C1180.51 14.9708 1176.87 14.168 1172.29 14.168V18.168ZM1182.59 26.152C1182.59 29.2593 1181.82 31.0904 1180.47 32.2284C1179.05 33.4417 1176.54 34.232 1172.29 34.232V38.232C1176.86 38.232 1180.5 37.4143 1182.99 35.3036C1185.57 33.1176 1186.53 29.9087 1186.53 26.152H1182.59ZM1208.41 9.40004H1210.38V7.40004H1208.41V9.40004ZM1199.92 9.40004V7.40004H1197.95V9.40004H1199.92ZM1199.92 43H1197.95V45H1199.92V43ZM1208.41 43V45H1210.38V43H1208.41ZM1208.41 7.40004H1199.92V11.4H1208.41V7.40004ZM1197.95 9.40004V43H1201.88V9.40004H1197.95ZM1199.92 45H1208.41V41H1199.92V45ZM1210.38 43V9.40004H1206.44V43H1210.38ZM1250.03 9.40004V7.40004H1248.06V9.40004H1250.03ZM1250.03 34.648L1248.57 35.9931L1251.99 39.8227V34.648H1250.03ZM1227.46 9.40004L1228.92 8.05497L1228.34 7.40004H1227.46V9.40004ZM1215.95 9.40004V7.40004H1213.99V9.40004H1215.95ZM1215.95 43H1213.99V45H1215.95V43ZM1224.45 43V45H1226.41V43H1224.45ZM1224.45 17.8L1225.9 16.4551L1222.48 12.6246V17.8H1224.45ZM1246.96 43L1245.5 44.3449L1246.08 45H1246.96V43ZM1258.52 43V45H1260.49V43H1258.52ZM1258.52 9.40004H1260.49V7.40004H1258.52V9.40004ZM1248.06 9.40004V34.648H1251.99V9.40004H1248.06ZM1251.48 33.3029L1228.92 8.05497L1226.01 10.7451L1248.57 35.9931L1251.48 33.3029ZM1227.46 7.40004H1215.95V11.4H1227.46V7.40004ZM1213.99 9.40004V43H1217.92V9.40004H1213.99ZM1215.95 45H1224.45V41H1215.95V45ZM1226.41 43V17.8H1222.48V43H1226.41ZM1222.99 19.1449L1245.5 44.3449L1248.41 41.6551L1225.9 16.4551L1222.99 19.1449ZM1246.96 45H1258.52V41H1246.96V45ZM1260.49 43V9.40004H1256.55V43H1260.49ZM1258.52 7.40004H1250.03V11.4H1258.52V7.40004ZM1333.24 9.40004H1335.2V7.40004H1333.24V9.40004ZM1324.74 9.40004V7.40004H1322.78V9.40004H1324.74ZM1300.21 9.40004H1302.17V7.40004H1300.21V9.40004ZM1291.71 9.40004V7.40004H1289.74V9.40004H1291.71ZM1335.2 26.152V9.40004H1331.27V26.152H1335.2ZM1333.24 7.40004H1324.74V11.4H1333.24V7.40004ZM1322.78 9.40004V26.152H1326.71V9.40004H1322.78ZM1322.78 26.152C1322.78 28.363 1322.45 30.2436 1321.26 31.6096C1320.09 32.9408 1317.69 34.232 1312.47 34.232V38.232C1318.25 38.232 1321.98 36.8112 1324.2 34.2664C1326.4 31.7564 1326.71 28.597 1326.71 26.152H1322.78ZM1312.47 34.232C1307.24 34.232 1304.85 32.9501 1303.69 31.6253C1302.5 30.2672 1302.17 28.3905 1302.17 26.152H1298.24C1298.24 28.6175 1298.55 31.7808 1300.75 34.2867C1302.97 36.8259 1306.7 38.232 1312.47 38.232V34.232ZM1302.17 26.152V9.40004H1298.24V26.152H1302.17ZM1300.21 7.40004H1291.71V11.4H1300.21V7.40004ZM1289.74 9.40004V26.152H1293.68V9.40004H1289.74ZM1289.74 26.152C1289.74 32.3638 1291.41 37.3653 1295.38 40.7427C1299.27 44.0526 1305.02 45.48 1312.47 45.48V41.48C1305.39 41.48 1300.76 40.0994 1297.9 37.6733C1295.12 35.3147 1293.68 31.6522 1293.68 26.152H1289.74ZM1312.47 45.48C1319.91 45.48 1325.65 44.0386 1329.55 40.7245C1333.52 37.3441 1335.2 32.3463 1335.2 26.152H1331.27C1331.27 31.6217 1329.81 35.2879 1327.02 37.6555C1324.16 40.0894 1319.52 41.48 1312.47 41.48V45.48ZM1340.08 31.432V29.432H1338.11V31.432H1340.08ZM1361.18 22.744L1361.06 24.7406L1361.07 24.7411L1361.18 22.744ZM1372.36 20.392H1370.39V22.392H1372.36V20.392ZM1380.85 20.392V22.392H1382.82V20.392H1380.85ZM1361.18 29.176L1361.27 27.1783V27.1781L1361.18 29.176ZM1348.57 31.432H1350.54V29.432H1348.57V31.432ZM1338.11 31.432C1338.11 34.1416 1338.68 36.493 1339.88 38.4609C1341.09 40.4326 1342.84 41.8678 1344.97 42.8972C1349.11 44.9073 1354.91 45.48 1361.7 45.48V41.48C1354.95 41.48 1349.93 40.8767 1346.66 39.2868C1345.06 38.5162 1343.95 37.5454 1343.23 36.3491C1342.49 35.149 1342.05 33.5704 1342.05 31.432H1338.11ZM1361.7 45.48C1367.81 45.48 1373.32 45.0386 1377.34 43.284C1379.4 42.3874 1381.16 41.1095 1382.39 39.2915C1383.63 37.4641 1384.23 35.2508 1384.23 32.68H1380.3C1380.3 34.5972 1379.86 35.9779 1379.16 37.017C1378.44 38.0655 1377.35 38.9266 1375.79 39.608C1372.58 41.0094 1367.79 41.48 1361.7 41.48V45.48ZM1384.23 32.68C1384.23 30.2213 1383.64 28.1255 1382.36 26.4275C1381.11 24.7508 1379.32 23.6599 1377.27 22.9138C1373.3 21.4611 1367.7 21.1013 1361.29 20.7469L1361.07 24.7411C1367.69 25.1067 1372.63 25.4669 1375.94 26.6782C1377.55 27.2641 1378.59 27.9912 1379.25 28.8615C1379.89 29.7105 1380.3 30.8907 1380.3 32.68H1384.23ZM1361.29 20.7474C1356.4 20.4545 1353.76 20.1943 1352.32 19.7596C1351.64 19.5524 1351.52 19.3854 1351.55 19.4129C1351.6 19.4841 1351.53 19.4892 1351.53 19.096H1347.6C1347.6 19.9988 1347.78 21.0359 1348.51 21.9441C1349.2 22.8085 1350.19 23.2836 1351.2 23.5924C1353.17 24.1897 1356.33 24.4575 1361.06 24.7405L1361.29 20.7474ZM1351.53 19.096C1351.53 18.9148 1351.55 18.8143 1351.56 18.7666C1351.57 18.7441 1351.57 18.7336 1351.57 18.731C1351.57 18.7289 1351.57 18.7287 1351.58 18.7282C1351.58 18.7275 1351.58 18.7202 1351.6 18.7067C1351.61 18.6927 1351.64 18.6698 1351.69 18.64C1351.78 18.5787 1351.95 18.4941 1352.22 18.4035C1353.41 18.003 1355.68 17.784 1359.9 17.784V13.784C1355.76 13.784 1352.87 13.973 1350.98 14.6045C1350 14.9362 1349.08 15.4544 1348.44 16.3228C1347.78 17.2096 1347.6 18.2041 1347.6 19.096H1351.53ZM1359.9 17.784C1364.34 17.784 1367.15 18.0259 1368.81 18.5971C1369.6 18.8694 1369.96 19.1586 1370.12 19.3661C1370.26 19.5426 1370.39 19.8196 1370.39 20.392H1374.32C1374.32 19.1164 1374.01 17.8934 1373.18 16.8594C1372.4 15.8564 1371.28 15.2246 1370.07 14.8069C1367.71 13.9981 1364.29 13.784 1359.9 13.784V17.784ZM1372.36 22.392H1380.85V18.392H1372.36V22.392ZM1382.82 20.392C1382.82 17.9966 1382.28 15.8618 1381.15 14.0341C1380.02 12.2121 1378.4 10.8148 1376.44 9.76925C1372.56 7.71223 1367.17 6.92004 1360.84 6.92004V10.92C1366.98 10.92 1371.59 11.7118 1374.61 13.3148C1376.09 14.0992 1377.13 15.0509 1377.81 16.1584C1378.49 17.2602 1378.88 18.6354 1378.88 20.392H1382.82ZM1360.84 6.92004C1354.61 6.92004 1349.32 7.50062 1345.54 9.18772C1343.61 10.0461 1341.97 11.2309 1340.83 12.858C1339.67 14.5029 1339.11 16.4574 1339.11 18.664H1343.04C1343.04 17.1746 1343.4 16.0631 1344.02 15.188C1344.65 14.2951 1345.65 13.5059 1347.11 12.8523C1350.12 11.5154 1354.71 10.92 1360.84 10.92V6.92004ZM1339.11 18.664C1339.11 20.8036 1339.51 22.7435 1340.5 24.4217C1341.51 26.1085 1342.99 27.3604 1344.87 28.2913C1348.5 30.095 1353.9 30.8385 1361.09 31.1739L1361.27 27.1781C1354.06 26.8415 1349.41 26.097 1346.59 24.6967C1345.24 24.0256 1344.4 23.2465 1343.88 22.3608C1343.34 21.4664 1343.04 20.2924 1343.04 18.664H1339.11ZM1361.08 31.1737C1366.53 31.442 1369.41 31.6932 1370.94 32.1469C1371.68 32.3626 1371.79 32.5413 1371.77 32.5126C1371.73 32.4541 1371.81 32.4817 1371.81 32.968H1375.74C1375.74 32.0623 1375.59 30.9859 1374.85 30.0379C1374.15 29.1197 1373.12 28.6234 1372.04 28.3051C1369.96 27.6908 1366.54 27.438 1361.27 27.1783L1361.08 31.1737ZM1371.81 32.968C1371.81 33.2549 1371.75 33.32 1371.72 33.352C1371.66 33.4305 1371.42 33.6483 1370.71 33.8772C1369.26 34.3531 1366.63 34.616 1362.17 34.616V38.616C1366.61 38.616 1369.8 38.3749 1371.91 37.6868C1373 37.3337 1373.99 36.8045 1374.71 35.9515C1375.46 35.0519 1375.74 34.0011 1375.74 32.968H1371.81ZM1362.17 34.616C1356.78 34.616 1353.74 34.1937 1352.07 33.5042C1351.3 33.1809 1350.97 32.8559 1350.82 32.6206C1350.66 32.3901 1350.54 32.0474 1350.54 31.432H1346.61C1346.61 32.5926 1346.84 33.7859 1347.56 34.8604C1348.27 35.9301 1349.32 36.6791 1350.59 37.2078C1353.04 38.2223 1356.78 38.616 1362.17 38.616V34.616ZM1348.57 29.432H1340.08V33.432H1348.57V29.432Z" fill="url(#paint6_linear_15_86)"/>
<path d="M1426.98 17.1092C1427.25 16.3679 1428.29 16.3679 1428.55 17.1092L1431.36 24.8384C1431.45 25.0715 1431.63 25.2552 1431.85 25.3415L1439.45 28.2016C1440.18 28.4759 1440.18 29.5243 1439.45 29.7986L1431.85 32.6587C1431.63 32.7449 1431.45 32.9287 1431.36 33.1618L1428.55 40.891C1428.29 41.6323 1427.25 41.6323 1426.98 40.891L1424.17 33.1618C1424.09 32.9287 1423.9 32.7449 1423.68 32.6587L1416.08 29.7986C1415.35 29.5243 1415.35 28.4759 1416.08 28.2016L1423.68 25.3415C1423.9 25.2552 1424.09 25.0715 1424.17 24.8384L1426.98 17.1092Z" fill="url(#paint7_linear_15_86)"/>
</g>
</g>
<defs>
<linearGradient id="paint0_linear_15_86" x1="140.524" y1="4.45502e-05" x2="140.524" y2="58" gradientUnits="userSpaceOnUse">
<stop stop-color="#9FA6FF"/>
<stop offset="1" stop-color="#55FFAD"/>
</linearGradient>
<linearGradient id="paint1_linear_15_86" x1="324.415" y1="14.9512" x2="324.415" y2="43.049" gradientUnits="userSpaceOnUse">
<stop stop-color="#9FA6FF"/>
<stop offset="1" stop-color="#55FFAD"/>
</linearGradient>
<linearGradient id="paint2_linear_15_86" x1="508.308" y1="4.45502e-05" x2="508.308" y2="58" gradientUnits="userSpaceOnUse">
<stop stop-color="#9FA6FF"/>
<stop offset="1" stop-color="#55FFAD"/>
</linearGradient>
<linearGradient id="paint3_linear_15_86" x1="692.2" y1="14.9512" x2="692.2" y2="43.049" gradientUnits="userSpaceOnUse">
<stop stop-color="#9FA6FF"/>
<stop offset="1" stop-color="#55FFAD"/>
</linearGradient>
<linearGradient id="paint4_linear_15_86" x1="876.091" y1="4.45502e-05" x2="876.091" y2="58" gradientUnits="userSpaceOnUse">
<stop stop-color="#9FA6FF"/>
<stop offset="1" stop-color="#55FFAD"/>
</linearGradient>
<linearGradient id="paint5_linear_15_86" x1="1059.98" y1="14.9512" x2="1059.98" y2="43.049" gradientUnits="userSpaceOnUse">
<stop stop-color="#9FA6FF"/>
<stop offset="1" stop-color="#55FFAD"/>
</linearGradient>
<linearGradient id="paint6_linear_15_86" x1="1243.87" y1="4.45502e-05" x2="1243.87" y2="58" gradientUnits="userSpaceOnUse">
<stop stop-color="#9FA6FF"/>
<stop offset="1" stop-color="#55FFAD"/>
</linearGradient>
<linearGradient id="paint7_linear_15_86" x1="1427.76" y1="14.9512" x2="1427.76" y2="43.049" gradientUnits="userSpaceOnUse">
<stop stop-color="#9FA6FF"/>
<stop offset="1" stop-color="#55FFAD"/>
</linearGradient>
<clipPath id="clip0_15_86">
<rect width="1471" height="58" fill="white"/>
</clipPath>
</defs>
</svg>
